HIERARCHY
ROOT root
{
	OFFSET	0	13.1	24.9
	CHANNELS 6  Xposition Yposition Zposition Xrotation Yrotation Zrotation
	JOINT spine_1
	{
		OFFSET	0	9.99999	0
		CHANNELS 3  Xrotation Yrotation Zrotation
		JOINT spine_2
		{
			OFFSET	0	112	-10
			CHANNELS 3  Xrotation Yrotation Zrotation
			JOINT spine_3
			{
				OFFSET	0	206.5	19.3
				CHANNELS 3  Xrotation Yrotation Zrotation
				JOINT spine_4
				{
					OFFSET	0	110.4	14.6
					CHANNELS 3  Xrotation Yrotation Zrotation
					JOINT neck_1
					{
						OFFSET	0	71.8	-50.3
						CHANNELS 3  Xrotation Yrotation Zrotation
						JOINT neck_2
						{
							OFFSET	0	86.2	-25.8
							CHANNELS 3  Xrotation Yrotation Zrotation
							JOINT head_ee
							{
								OFFSET	0	179.8	-8.7
								CHANNELS 3  Xrotation Yrotation Zrotation
								End Site
								{
									OFFSET	1	0	0
								}
							}
						}
					}
					JOINT left_clavicle
					{
						OFFSET	-43.2	22.4	-70.8
						CHANNELS 3  Xrotation Yrotation Zrotation
						JOINT left_shoulder
						{
							OFFSET	-93.9	-5.79999	48.7
							CHANNELS 3  Xrotation Yrotation Zrotation
							JOINT left_elbow
							{
								OFFSET	-291.4	-30.8	15.2
								CHANNELS 3  Xrotation Yrotation Zrotation
								JOINT left_lowarm_twist
								{
									OFFSET	-110.7	-3.89999	13.6
									CHANNELS 3  Xrotation Yrotation Zrotation
									JOINT left_hand
									{
										OFFSET	-110.7	-3.89999	13.6
										CHANNELS 3  Xrotation Yrotation Zrotation
										JOINT left_ee
										{
											OFFSET	-80.8	-5.10001	12.1
											CHANNELS 3  Xrotation Yrotation Zrotation
											End Site
											{
												OFFSET	1	0	0
											}
										}
									}
								}
							}
						}
					}
					JOINT right_clavicle
					{
						OFFSET	43.2	22.4	-70.8
						CHANNELS 3  Xrotation Yrotation Zrotation
						JOINT right_shoulder
						{
							OFFSET	93.9	-5.79999	48.7
							CHANNELS 3  Xrotation Yrotation Zrotation
							JOINT right_elbow
							{
								OFFSET	291.4	-30.8	15.2
								CHANNELS 3  Xrotation Yrotation Zrotation
								JOINT right_lowarm_twist
								{
									OFFSET	110.7	-3.89999	13.6
									CHANNELS 3  Xrotation Yrotation Zrotation
									JOINT right_hand
									{
										OFFSET	110.7	-3.89999	13.6
										CHANNELS 3  Xrotation Yrotation Zrotation
										JOINT right_ee
										{
											OFFSET	80.8	-5.10001	12.1
											CHANNELS 3  Xrotation Yrotation Zrotation
											End Site
											{
												OFFSET	1	0	0
											}
										}
									}
								}
							}
						}
					}
				}
			}
		}
	}
	JOINT left_hip
	{
		OFFSET	-82.8	-127.5	0.300001
		CHANNELS 3  Xrotation Yrotation Zrotation
		JOINT left_knee
		{
			OFFSET	-28.2	-396.7	2.2
			CHANNELS 3  Xrotation Yrotation Zrotation
			JOINT left_ankle
			{
				OFFSET	-11.7	-411.3	35.4
				CHANNELS 3  Xrotation Yrotation Zrotation
				JOINT left_toes
				{
					OFFSET	0	-60	-88.6
					CHANNELS 3  Xrotation Yrotation Zrotation
					JOINT left_foot_ee
					{
						OFFSET	-22.5	-16.5	-42.2
						CHANNELS 3  Xrotation Yrotation Zrotation
						End Site
						{
							OFFSET	1	0	0
						}
					}
				}
			}
		}
	}
	JOINT right_hip
	{
		OFFSET	82.8	-127.5	0.300001
		CHANNELS 3  Xrotation Yrotation Zrotation
		JOINT right_knee
		{
			OFFSET	28.2	-396.7	2.2
			CHANNELS 3  Xrotation Yrotation Zrotation
			JOINT right_ankle
			{
				OFFSET	11.7	-411.3	35.4
				CHANNELS 3  Xrotation Yrotation Zrotation
				JOINT right_toes
				{
					OFFSET	0	-60	-88.6
					CHANNELS 3  Xrotation Yrotation Zrotation
					JOINT right_foot_ee
					{
						OFFSET	22.5	-16.5	-42.2
						CHANNELS 3  Xrotation Yrotation Zrotation
						End Site
						{
							OFFSET	1	0	0
						}
					}
				}
			}
		}
	}
}
MOTION
Frames: 10
Frame Time: 0.02
2588.90640555 750.748 -1562.01658218 173.485925205 74.8472784913 -162.942598522 -1.83234 -0.406994 -2.63921 -1.8285 -0.238291 -2.65974 -1.81348 0.409961 -2.63875 -1.8232 -0.0117714 -2.67036 1.939 -15.6877 3.85637 3.04317 -30.8285 3.23596 -0.0 0.0 -0.0 8.61166 -5.37734 16.886 -31.4812 -33.2275 58.0998 0.657105 -18.0307 0.104257 -28.9194 -1.85703 3.15677 -1.58885 11.6051 -5.29693 -0.0 0.0 -0.0 4.82865 14.9283 -8.48487 12.4887 -32.4422 -60.0711 2.20376 47.5035 -0.969855 47.7987 0.815765 5.8767 -0.606376 -28.0088 -7.65275 0.0 0.0 0.0 10.0563 -29.6839 -18.9088 -44.5233 -0.77932 6.61956 37.3717 -24.2256 -5.30581 8.25248 -0.0 -0.0 -0.0 0.0 -0.0 0.805689 -20.0052 -19.5512 5.78974 0.281338 0.843297 30.318 -23.6758 4.11273 -37.5767 0.0 0.0 0.0 0.0 0.0 
2562.33351393 753.681 -1563.56619204 177.337856313 71.7570301807 -166.64594897 -1.73224 -0.358723 -2.4768 -1.72884 -0.200441 -2.4946 -1.71677 0.402708 -2.47004 -1.72528 0.00768431 -2.50262 2.71754 -15.0529 2.9457 3.71191 -28.8268 2.40561 -0.0 0.0 -0.0 8.61298 -5.62238 16.8883 -31.592 -30.7534 58.9762 0.567929 -15.7133 0.0783696 -27.0426 -1.68998 2.98361 -0.827601 12.8292 0.0672006 -0.0 0.0 -0.0 5.992 13.099 -11.0882 12.0422 -32.7009 -59.4522 2.43387 50.3195 -1.14334 46.5575 0.733532 5.74077 -0.354631 -25.1489 -7.95662 0.0 0.0 0.0 12.5298 -32.0439 -18.0595 -45.1635 -0.827509 6.70548 35.8446 -20.7656 -4.9899 8.38455 -0.0 -0.0 -0.0 0.0 -0.0 -0.514083 -20.6073 -21.4912 6.14983 0.30164 0.894773 33.5072 -24.7079 4.49338 -38.6896 0.0 0.0 0.0 0.0 0.0 
2540.44347286 751.627 -1561.25732108 179.771960688 70.8384327587 -168.833822171 -1.51142 -0.224901 -2.41959 -1.50816 -0.0705262 -2.42899 -1.50238 0.504333 -2.37714 -1.51024 0.122696 -2.42692 0.756347 -15.061 2.8224 1.57362 -29.0599 1.79773 -0.0 0.0 -0.0 7.82364 -4.61402 15.2468 -30.268 -29.6324 61.3543 0.577821 -15.9732 0.0810702 -22.6116 -1.31888 2.554 -0.403515 14.3542 3.36567 -0.0 0.0 -0.0 5.86883 15.6797 -10.6536 10.5238 -33.4343 -61.1366 2.64348 52.6238 -1.30735 47.9949 0.829036 5.89802 -0.0194936 -29.0428 -11.2519 0.0 0.0 0.0 16.1818 -30.8345 -17.685 -47.5749 -1.01758 7.02419 33.9808 -20.6872 -4.79396 9.38224 -0.0 -0.0 -0.0 0.0 -0.0 -0.229626 -19.8153 -22.4295 5.9104 0.288104 0.860559 35.5536 -23.3788 4.67583 -40.127 0.0 0.0 0.0 0.0 0.0 
2506.99833827 756.113 -1537.26319527 175.020835798 71.878566315 -168.582156827 -1.53257 -0.109736 -0.96478 -1.53206 -0.0481254 -0.969807 -1.53078 0.182338 -0.953728 -1.53205 0.029433 -0.970554 -1.06938 -13.6303 1.88869 -0.585721 -26.0133 0.468012 -0.0 0.0 -0.0 7.80837 -6.19 15.1966 -25.8134 -11.6566 66.5199 0.389607 -10.924 0.0372541 -10.5812 -0.490643 1.2588 0.201384 -15.3696 -5.18651 -0.0 0.0 -0.0 9.61712 16.0705 -18.7926 17.664 -28.3951 -53.4881 2.6112 52.2839 -1.28175 36.7872 0.192789 4.61565 3.17777 -20.7187 -28.4313 0.0 0.0 0.0 22.577 -30.5431 -7.48789 -53.0898 -1.50178 7.72158 24.1465 -3.7539 -3.28587 7.24654 -0.0 -0.0 -0.0 0.0 -0.0 -0.991471 -17.6102 -17.4888 6.15164 0.301743 0.895032 28.9438 -23.2884 3.94631 -12.4706 0.0 0.0 0.0 0.0 0.0 
2505.60629579 756.113 -1530.43647602 175.348508722 70.5557690488 -168.928238105 -1.53257 -0.109736 -0.96478 -1.53206 -0.0481254 -0.969807 -1.53078 0.182338 -0.953728 -1.53205 0.029433 -0.970554 -1.06938 -13.6303 1.88869 -0.585721 -26.0133 0.468012 -0.0 0.0 -0.0 7.80837 -6.19 15.1966 -25.8134 -11.6566 66.5199 0.389607 -10.924 0.0372541 -10.5812 -0.490643 1.2588 0.201384 -15.3696 -5.18651 -0.0 0.0 -0.0 9.61712 16.0705 -18.7926 17.664 -28.3951 -53.4881 2.6112 52.2839 -1.28175 36.7872 0.192789 4.61565 3.17777 -20.7187 -28.4313 0.0 0.0 0.0 22.577 -30.5431 -7.48789 -53.0898 -1.50178 7.72158 24.1465 -3.7539 -3.28587 7.24654 -0.0 -0.0 -0.0 0.0 -0.0 -0.991471 -17.6102 -17.4888 6.15164 0.301743 0.895032 28.9438 -23.2884 3.94631 -12.4706 0.0 0.0 0.0 0.0 0.0 
2505.31738414 756.113 -1528.90941732 175.41549073 70.2606209995 -168.999336077 -1.53257 -0.109736 -0.96478 -1.53206 -0.0481254 -0.969807 -1.53078 0.182338 -0.953728 -1.53205 0.029433 -0.970554 -1.06938 -13.6303 1.88869 -0.585721 -26.0133 0.468012 -0.0 0.0 -0.0 7.80837 -6.19 15.1966 -25.8134 -11.6566 66.5199 0.389607 -10.924 0.0372541 -10.5812 -0.490643 1.2588 0.201384 -15.3696 -5.18651 -0.0 0.0 -0.0 9.61712 16.0705 -18.7926 17.664 -28.3951 -53.4881 2.6112 52.2839 -1.28175 36.7872 0.192789 4.61565 3.17777 -20.7187 -28.4313 0.0 0.0 0.0 22.577 -30.5431 -7.48789 -53.0898 -1.50178 7.72158 24.1465 -3.7539 -3.28587 7.24654 -0.0 -0.0 -0.0 0.0 -0.0 -0.991471 -17.6102 -17.4888 6.15164 0.301743 0.895032 28.9438 -23.2884 3.94631 -12.4706 0.0 0.0 0.0 0.0 0.0 
2504.91939777 756.113 -1526.73120658 175.507462179 69.8400620399 -169.097178135 -1.53257 -0.109736 -0.96478 -1.53206 -0.0481254 -0.969807 -1.53078 0.182338 -0.953728 -1.53205 0.029433 -0.970554 -1.06938 -13.6303 1.88869 -0.585721 -26.0133 0.468012 -0.0 0.0 -0.0 7.80837 -6.19 15.1966 -25.8134 -11.6566 66.5199 0.389607 -10.924 0.0372541 -10.5812 -0.490643 1.2588 0.201384 -15.3696 -5.18651 -0.0 0.0 -0.0 9.61712 16.0705 -18.7926 17.664 -28.3951 -53.4881 2.6112 52.2839 -1.28175 36.7872 0.192789 4.61565 3.17777 -20.7187 -28.4313 0.0 0.0 0.0 22.577 -30.5431 -7.48789 -53.0898 -1.50178 7.72158 24.1465 -3.7539 -3.28587 7.24654 -0.0 -0.0 -0.0 0.0 -0.0 -0.991471 -17.6102 -17.4888 6.15164 0.301743 0.895032 28.9438 -23.2884 3.94631 -12.4706 0.0 0.0 0.0 0.0 0.0 
2503.92234956 756.113 -1520.81892851 175.737857915 68.7010123628 -169.343509403 -1.53257 -0.109736 -0.96478 -1.53206 -0.0481254 -0.969807 -1.53078 0.182338 -0.953728 -1.53205 0.029433 -0.970554 -1.06938 -13.6303 1.88869 -0.585721 -26.0133 0.468012 -0.0 0.0 -0.0 7.80837 -6.19 15.1966 -25.8134 -11.6566 66.5199 0.389607 -10.924 0.0372541 -10.5812 -0.490643 1.2588 0.201384 -15.3696 -5.18651 -0.0 0.0 -0.0 9.61712 16.0705 -18.7926 17.664 -28.3951 -53.4881 2.6112 52.2839 -1.28175 36.7872 0.192789 4.61565 3.17777 -20.7187 -28.4313 0.0 0.0 0.0 22.577 -30.5431 -7.48789 -53.0898 -1.50178 7.72158 24.1465 -3.7539 -3.28587 7.24654 -0.0 -0.0 -0.0 0.0 -0.0 -0.991471 -17.6102 -17.4888 6.15164 0.301743 0.895032 28.9438 -23.2884 3.94631 -12.4706 0.0 0.0 0.0 0.0 0.0 
2503.3180008 756.113 -1516.83079354 175.879142152 67.9345350315 -169.495547592 -1.53257 -0.109736 -0.96478 -1.53206 -0.0481254 -0.969807 -1.53078 0.182338 -0.953728 -1.53205 0.029433 -0.970554 -1.06938 -13.6303 1.88869 -0.585721 -26.0133 0.468012 -0.0 0.0 -0.0 7.80837 -6.19 15.1966 -25.8134 -11.6566 66.5199 0.389607 -10.924 0.0372541 -10.5812 -0.490643 1.2588 0.201384 -15.3696 -5.18651 -0.0 0.0 -0.0 9.61712 16.0705 -18.7926 17.664 -28.3951 -53.4881 2.6112 52.2839 -1.28175 36.7872 0.192789 4.61565 3.17777 -20.7187 -28.4313 0.0 0.0 0.0 22.577 -30.5431 -7.48789 -53.0898 -1.50178 7.72158 24.1465 -3.7539 -3.28587 7.24654 -0.0 -0.0 -0.0 0.0 -0.0 -0.991471 -17.6102 -17.4888 6.15164 0.301743 0.895032 28.9438 -23.2884 3.94631 -12.4706 0.0 0.0 0.0 0.0 0.0 
2503.32769451 756.113 -1516.89774013 175.876855988 67.9473899188 -169.493080857 -1.53257 -0.109736 -0.96478 -1.53206 -0.0481254 -0.969807 -1.53078 0.182338 -0.953728 -1.53205 0.029433 -0.970554 -1.06938 -13.6303 1.88869 -0.585721 -26.0133 0.468012 -0.0 0.0 -0.0 7.80837 -6.19 15.1966 -25.8134 -11.6566 66.5199 0.389607 -10.924 0.0372541 -10.5812 -0.490643 1.2588 0.201384 -15.3696 -5.18651 -0.0 0.0 -0.0 9.61712 16.0705 -18.7926 17.664 -28.3951 -53.4881 2.6112 52.2839 -1.28175 36.7872 0.192789 4.61565 3.17777 -20.7187 -28.4313 0.0 0.0 0.0 22.577 -30.5431 -7.48789 -53.0898 -1.50178 7.72158 24.1465 -3.7539 -3.28587 7.24654 -0.0 -0.0 -0.0 0.0 -0.0 -0.991471 -17.6102 -17.4888 6.15164 0.301743 0.895032 28.9438 -23.2884 3.94631 -12.4706 0.0 0.0 0.0 0.0 0.0 
